<svg
  xmlns="http://www.w3.org/2000/svg"
  viewBox="88.01 62.952 323.98 374.096"
  width="99.59375"
  height="115"
  preserveAspectRatio="xMinYMin"
>
  <polygon fill="#70EFFC" points="349.177,246.747 349.177,307.263 250,208.88" />
  <polygon fill="#4EE1F9" points="411.99,283.007 411.99,343.522 349.177,307.263 349.177,246.747" />
  <polygon fill="#05A7D3" points="411.99,343.522 358.472,374.421 358.464,374.421 250,437.048 250,364.522 295.659,338.161 349.177,307.263" />
  <polygon fill="#057EC1" points="250,364.522 250,437.048 150.823,307.263" />
  <polygon fill="#0462A3" points="150.823,307.263 250,437.048 88.01,343.522" />
  <polygon fill="#2E97ED" points="411.99,156.478 349.177,192.737 250,62.952" />
  <polygon fill="#297ED3" points="250,62.952 349.177,192.737 250,135.478" />
  <polygon fill="#0E52A5" points="250,62.952 250,135.478 203.229,162.483 150.823,192.737 88.01,156.478 140.416,126.224" />
  <polygon fill="#033277" points="150.823,192.737 150.823,254.542 88.01,218.275 88.01,156.478" />
  <polygon fill="#021A56" points="150.823,192.737 243.914,297.454 150.823,254.542" />
</svg>
